<svg version="1.1" id="Layer_1" xmlns="http://www.w3.org/2000/svg" xmlns:xlink="http://www.w3.org/1999/xlink" x="0px" y="0px"
	 width="100%" viewBox="0 0 256 256" enable-background="new 0 0 256 256" xml:space="preserve">
<path fill="#020202" opacity="1.000000" stroke="none" 
	d="
M148.000000,257.000000 
	C98.666672,257.000000 49.833340,257.000000 1.000006,257.000000 
	C1.000004,171.666672 1.000004,86.333351 1.000002,1.000018 
	C86.333321,1.000012 171.666641,1.000012 257.000000,1.000006 
	C257.000000,86.333313 257.000000,171.666626 257.000000,256.999969 
	C220.833328,257.000000 184.666672,257.000000 148.000000,257.000000 
M225.992340,34.243553 
	C225.308701,33.894939 224.625076,33.546322 223.301941,32.890793 
	C218.027618,29.993769 212.953857,26.595802 207.408524,24.375669 
	C203.705811,22.893246 199.156128,22.080439 195.297318,22.754122 
	C188.598618,23.923595 182.037140,26.188969 175.609467,28.521944 
	C167.702759,31.391743 162.193893,37.671673 158.262329,44.530190 
	C153.129059,53.485058 151.240036,63.694111 151.381897,74.142525 
	C151.447052,78.941048 151.392990,83.741180 151.392990,88.740051 
	C137.342728,88.740051 123.595703,88.740051 110.534927,88.740051 
	C109.451569,77.093437 108.773354,65.712692 107.232018,54.450073 
	C105.852585,44.370472 99.075493,36.894737 91.375244,31.523661 
	C82.175552,25.106693 71.528969,21.885868 59.585339,23.706575 
	C46.536087,25.695822 36.297787,30.998161 28.717632,42.147453 
	C18.562080,57.084782 19.003227,72.639351 25.668200,88.150146 
	C29.647741,97.411392 36.928631,105.096275 46.779388,108.206360 
	C55.071320,110.824287 64.034683,111.442993 72.752914,112.528290 
	C76.973427,113.053688 81.313446,112.619026 85.709038,112.619026 
	C85.709038,126.751503 85.709038,140.496292 85.709038,153.677505 
	C76.667175,154.407806 67.958061,155.494629 59.227131,155.714294 
	C49.470734,155.959778 41.243462,159.822723 34.691711,166.346039 
	C27.596571,173.410385 21.521641,181.522339 21.861116,192.532379 
	C22.009430,197.342590 21.803635,202.162888 21.901590,206.975677 
	C22.154140,219.383850 29.789175,228.252548 38.362553,235.171936 
	C45.249107,240.729904 54.282757,243.588516 64.017990,243.720810 
	C74.452881,243.862625 83.785034,240.739563 91.814018,235.202164 
	C97.196106,231.490250 101.836250,225.367310 104.437500,219.305740 
	C107.500992,212.167084 108.454361,203.987503 109.467079,196.148743 
	C110.221550,190.308945 109.615738,184.293411 109.615738,178.329193 
	C123.810715,178.329193 137.537857,178.329193 149.866440,178.329193 
	C151.567947,190.324326 152.553528,201.948486 154.991821,213.259476 
	C157.936798,226.921021 167.648132,235.896347 180.056335,240.640259 
	C195.759644,246.643951 211.194763,244.390991 224.686691,233.759048 
	C232.546310,227.565491 237.309174,219.011765 239.703827,209.478821 
	C241.574646,202.031189 241.289230,194.247772 239.262863,186.760117 
	C237.256577,179.346634 233.408325,172.693512 227.832901,167.549469 
	C223.410217,163.469009 218.317291,158.726379 212.808655,157.511078 
	C202.484680,155.233414 191.646103,155.273132 181.016724,154.408661 
	C179.113205,154.253860 177.186295,154.386642 175.218079,154.386642 
	C175.218079,140.189026 175.218079,126.583832 175.218079,112.617477 
	C178.704102,112.617477 182.030609,112.933708 185.276855,112.557426 
	C194.540634,111.483604 204.005386,110.988754 212.929611,108.566208 
	C218.435837,107.071495 223.750076,103.140823 227.948318,99.065376 
	C231.789291,95.336777 234.711319,90.228844 236.766190,85.208084 
	C239.073654,79.570122 241.372604,73.278961 241.085159,67.398590 
	C240.750687,60.556011 237.607971,53.850712 235.732086,46.482246 
	C235.472214,45.991707 235.212357,45.501167 234.950546,44.519623 
	C234.950546,44.519623 234.745483,44.073486 234.735794,43.402733 
	C233.469070,42.302460 232.202347,41.202190 230.991089,40.031441 
	C230.991089,40.031441 230.905045,40.056702 230.917877,39.362877 
	C230.285934,38.898827 229.653992,38.434776 228.998520,37.998417 
	C228.998520,37.998417 229.028244,37.979511 229.014465,37.268818 
	C228.022659,36.495384 227.030838,35.721951 226.002731,35.001392 
	C226.002731,35.001392 226.052017,34.959824 225.992340,34.243553 
z"/>
<path fill="#F7F7F7" opacity="1.000000" stroke="none" 
	d="
M234.745483,44.073486 
	C234.745483,44.073486 234.950546,44.519623 234.707764,44.916656 
	C234.871307,45.904404 235.277634,46.495121 235.683960,47.085838 
	C237.607971,53.850712 240.750687,60.556011 241.085159,67.398590 
	C241.372604,73.278961 239.073654,79.570122 236.766190,85.208084 
	C234.711319,90.228844 231.789291,95.336777 227.948318,99.065376 
	C223.750076,103.140823 218.435837,107.071495 212.929611,108.566208 
	C204.005386,110.988754 194.540634,111.483604 185.276855,112.557426 
	C182.030609,112.933708 178.704102,112.617477 175.218079,112.617477 
	C175.218079,126.583832 175.218079,140.189026 175.218079,154.386642 
	C177.186295,154.386642 179.113205,154.253860 181.016724,154.408661 
	C191.646103,155.273132 202.484680,155.233414 212.808655,157.511078 
	C218.317291,158.726379 223.410217,163.469009 227.832901,167.549469 
	C233.408325,172.693512 237.256577,179.346634 239.262863,186.760117 
	C241.289230,194.247772 241.574646,202.031189 239.703827,209.478821 
	C237.309174,219.011765 232.546310,227.565491 224.686691,233.759048 
	C211.194763,244.390991 195.759644,246.643951 180.056335,240.640259 
	C167.648132,235.896347 157.936798,226.921021 154.991821,213.259476 
	C152.553528,201.948486 151.567947,190.324326 149.866440,178.329193 
	C137.537857,178.329193 123.810715,178.329193 109.615738,178.329193 
	C109.615738,184.293411 110.221550,190.308945 109.467079,196.148743 
	C108.454361,203.987503 107.500992,212.167084 104.437500,219.305740 
	C101.836250,225.367310 97.196106,231.490250 91.814018,235.202164 
	C83.785034,240.739563 74.452881,243.862625 64.017990,243.720810 
	C54.282757,243.588516 45.249107,240.729904 38.362553,235.171936 
	C29.789175,228.252548 22.154140,219.383850 21.901590,206.975677 
	C21.803635,202.162888 22.009430,197.342590 21.861116,192.532379 
	C21.521641,181.522339 27.596571,173.410385 34.691711,166.346039 
	C41.243462,159.822723 49.470734,155.959778 59.227131,155.714294 
	C67.958061,155.494629 76.667175,154.407806 85.709038,153.677505 
	C85.709038,140.496292 85.709038,126.751503 85.709038,112.619026 
	C81.313446,112.619026 76.973427,113.053688 72.752914,112.528290 
	C64.034683,111.442993 55.071320,110.824287 46.779388,108.206360 
	C36.928631,105.096275 29.647741,97.411392 25.668200,88.150146 
	C19.003227,72.639351 18.562080,57.084782 28.717632,42.147453 
	C36.297787,30.998161 46.536087,25.695822 59.585339,23.706575 
	C71.528969,21.885868 82.175552,25.106693 91.375244,31.523661 
	C99.075493,36.894737 105.852585,44.370472 107.232018,54.450073 
	C108.773354,65.712692 109.451569,77.093437 110.534927,88.740051 
	C123.595703,88.740051 137.342728,88.740051 151.392990,88.740051 
	C151.392990,83.741180 151.447052,78.941048 151.381897,74.142525 
	C151.240036,63.694111 153.129059,53.485058 158.262329,44.530190 
	C162.193893,37.671673 167.702759,31.391743 175.609467,28.521944 
	C182.037140,26.188969 188.598618,23.923595 195.297318,22.754122 
	C199.156128,22.080439 203.705811,22.893246 207.408524,24.375669 
	C212.953857,26.595802 218.027618,29.993769 223.665619,33.361340 
	C224.703537,34.207863 225.377777,34.583843 226.052017,34.959824 
	C226.052017,34.959824 226.002731,35.001392 226.049408,35.314892 
	C227.073486,36.412094 228.050873,37.195801 229.028244,37.979507 
	C229.028244,37.979511 228.998520,37.998417 228.992188,38.324997 
	C229.625565,39.119953 230.265305,39.588329 230.905045,40.056705 
	C230.905045,40.056702 230.991089,40.031441 230.919083,40.421738 
	C232.146545,41.899185 233.446014,42.986336 234.745483,44.073486 
M130.499863,154.368851 
	C137.413452,154.368851 144.327026,154.368851 151.039398,154.368851 
	C151.039398,140.020477 151.039398,126.443398 151.039398,112.909485 
	C137.116028,112.909485 123.542610,112.909485 109.879211,112.909485 
	C109.879211,126.799377 109.879211,140.377014 109.879211,154.367691 
	C116.588493,154.367691 123.044235,154.367691 130.499863,154.368851 
M191.434235,178.004639 
	C186.020721,178.004639 180.607224,178.004639 175.095612,178.004639 
	C175.095612,186.057312 174.898636,193.521545 175.146347,200.970993 
	C175.444016,209.922058 186.126755,220.384689 195.103592,220.884186 
	C203.494202,221.351044 212.198654,215.354752 216.158920,206.677002 
	C220.027634,198.199905 217.487885,192.411865 211.627350,184.860336 
	C206.682495,178.488678 199.641479,177.971985 191.434235,178.004639 
M214.866776,57.814137 
	C211.907867,54.731300 209.420975,50.882389 205.899506,48.712570 
	C196.222809,42.750103 183.734131,48.169647 178.692978,56.470623 
	C172.293991,67.007416 176.346161,78.053772 174.865417,88.929962 
	C182.969177,88.929962 190.334930,89.519081 197.558777,88.759186 
	C204.365479,88.043182 210.253052,85.191528 214.309738,78.718872 
	C218.650772,71.792549 218.678009,65.193398 214.866776,57.814137 
M52.374325,216.318024 
	C53.307365,216.654388 54.459007,216.748367 55.140839,217.363281 
	C66.312607,227.438721 84.279610,214.687424 85.804901,203.845856 
	C86.988319,195.434296 86.041382,186.723022 86.041382,178.006256 
	C78.870834,178.006256 72.380157,177.818634 65.905533,178.060516 
	C59.769909,178.289719 54.499935,180.065201 49.687943,184.711700 
	C41.234875,192.874115 41.776340,208.580429 52.374325,216.318024 
M85.997261,81.450089 
	C86.003830,76.796783 85.674675,72.113785 86.083199,67.496040 
	C87.096062,56.047314 76.058327,46.620773 65.729294,46.270157 
	C57.451241,45.989159 51.062195,50.169567 46.385029,57.482487 
	C41.316902,65.406708 44.385300,81.484970 52.710690,85.477669 
	C63.359112,90.584450 74.731689,88.842728 85.997681,88.931992 
	C85.997681,86.394569 85.997681,84.415405 85.997261,81.450089 
z"/>
<path fill="#BFBFBF" opacity="1.000000" stroke="none" 
	d="
M234.740631,43.738113 
	C233.446014,42.986336 232.146545,41.899185 230.891357,40.456978 
	C232.202347,41.202190 233.469070,42.302460 234.740631,43.738113 
z"/>
<path fill="#BFBFBF" opacity="1.000000" stroke="none" 
	d="
M229.021362,37.624161 
	C228.050873,37.195801 227.073486,36.412094 226.067566,35.288452 
	C227.030838,35.721951 228.022659,36.495384 229.021362,37.624161 
z"/>
<path fill="#BFBFBF" opacity="1.000000" stroke="none" 
	d="
M226.022186,34.601688 
	C225.377777,34.583843 224.703537,34.207863 223.985367,33.514797 
	C224.625076,33.546322 225.308701,33.894939 226.022186,34.601688 
z"/>
<path fill="#BFBFBF" opacity="1.000000" stroke="none" 
	d="
M230.911469,39.709793 
	C230.265305,39.588329 229.625565,39.119953 229.003937,38.311153 
	C229.653992,38.434776 230.285934,38.898827 230.911469,39.709793 
z"/>
<path fill="#BFBFBF" opacity="1.000000" stroke="none" 
	d="
M235.708023,46.784042 
	C235.277634,46.495121 234.871307,45.904404 234.708740,45.162155 
	C235.212357,45.501167 235.472214,45.991707 235.708023,46.784042 
z"/>
<path fill="#000000" opacity="1.000000" stroke="none" 
	d="
M129.999908,154.368271 
	C123.044235,154.367691 116.588493,154.367691 109.879211,154.367691 
	C109.879211,140.377014 109.879211,126.799377 109.879211,112.909485 
	C123.542610,112.909485 137.116028,112.909485 151.039398,112.909485 
	C151.039398,126.443398 151.039398,140.020477 151.039398,154.368851 
	C144.327026,154.368851 137.413452,154.368851 129.999908,154.368271 
z"/>
<path fill="#060606" opacity="1.000000" stroke="none" 
	d="
M191.921173,178.004639 
	C199.641479,177.971985 206.682495,178.488678 211.627350,184.860336 
	C217.487885,192.411865 220.027634,198.199905 216.158920,206.677002 
	C212.198654,215.354752 203.494202,221.351044 195.103592,220.884186 
	C186.126755,220.384689 175.444016,209.922058 175.146347,200.970993 
	C174.898636,193.521545 175.095612,186.057312 175.095612,178.004639 
	C180.607224,178.004639 186.020721,178.004639 191.921173,178.004639 
z"/>
<path fill="#050505" opacity="1.000000" stroke="none" 
	d="
M215.247375,57.956013 
	C218.678009,65.193398 218.650772,71.792549 214.309738,78.718872 
	C210.253052,85.191528 204.365479,88.043182 197.558777,88.759186 
	C190.334930,89.519081 182.969177,88.929962 174.865417,88.929962 
	C176.346161,78.053772 172.293991,67.007416 178.692978,56.470623 
	C183.734131,48.169647 196.222809,42.750103 205.899506,48.712570 
	C209.420975,50.882389 211.907867,54.731300 215.247375,57.956013 
z"/>
<path fill="#050505" opacity="1.000000" stroke="none" 
	d="
M52.179245,215.981995 
	C41.776340,208.580429 41.234875,192.874115 49.687943,184.711700 
	C54.499935,180.065201 59.769909,178.289719 65.905533,178.060516 
	C72.380157,177.818634 78.870834,178.006256 86.041382,178.006256 
	C86.041382,186.723022 86.988319,195.434296 85.804901,203.845856 
	C84.279610,214.687424 66.312607,227.438721 55.140839,217.363281 
	C54.459007,216.748367 53.307365,216.654388 52.179245,215.981995 
z"/>
<path fill="#050505" opacity="1.000000" stroke="none" 
	d="
M85.997467,81.943169 
	C85.997681,84.415405 85.997681,86.394569 85.997681,88.931992 
	C74.731689,88.842728 63.359112,90.584450 52.710690,85.477669 
	C44.385300,81.484970 41.316902,65.406708 46.385029,57.482487 
	C51.062195,50.169567 57.451241,45.989159 65.729294,46.270157 
	C76.058327,46.620773 87.096062,56.047314 86.083199,67.496040 
	C85.674675,72.113785 86.003830,76.796783 85.997467,81.943169 
z"/>
</svg>